<?xml version="1.0" encoding="UTF-8"?>
<svg width="42px" height="42px" viewBox="0 0 42 42" version="1.1" xmlns="http://www.w3.org/2000/svg" xmlns:xlink="http://www.w3.org/1999/xlink">
    <title>Combined Shape</title>
    <g id="Page-1" stroke="none" stroke-width="1" fill="none" fill-rule="evenodd">
        <g id="Home" transform="translate(-448.000000, -3190.000000)" fill="#F7D7A7">
            <path d="M469,3190 C480.59798,3190 490,3199.40202 490,3211 C490,3222.59798 480.59798,3232 469,3232 C457.40202,3232 448,3222.59798 448,3211 C448,3199.40202 457.40202,3190 469,3190 Z M472.276012,3198 C468.594689,3198 466.065303,3200.23432 466.065303,3204.34429 L466.065303,3208.125 L462,3208.125 L462,3212.92291 L466.065303,3212.92291 L466.065303,3225 L471.050936,3225 L471.050936,3212.92291 L474.951676,3212.92291 L475.573357,3208.125 L471.050936,3208.125 L471.050936,3204.81468 C471.057031,3203.42705 471.44101,3202.4804 473.446234,3202.4804 L476,3202.4804 L476,3198.18815 C475.561167,3198.12936 474.043535,3198 472.276012,3198 Z" id="Combined-Shape"></path>
        </g>
    </g>
</svg>