<?xml version="1.0" encoding="UTF-8"?>
<svg width="42px" height="42px" viewBox="0 0 42 42" version="1.1" xmlns="http://www.w3.org/2000/svg" xmlns:xlink="http://www.w3.org/1999/xlink">
    <title>Combined Shape 2</title>
    <g id="Page-1" stroke="none" stroke-width="1" fill="none" fill-rule="evenodd">
        <g id="Home" transform="translate(-510.000000, -3190.000000)" fill="#F7D7A7">
            <path d="M531,3190 C542.59798,3190 552,3199.40202 552,3211 C552,3222.59798 542.59798,3232 531,3232 C519.40202,3232 510,3222.59798 510,3211 C510,3199.40202 519.40202,3190 531,3190 Z M536.25,3197 L525.75,3197 L525.491923,3197.00373 C520.777239,3197.14014 517,3201.00217 517,3205.75 L517,3205.75 L517,3216.25 L517.003729,3216.50808 C517.140144,3221.22276 521.002166,3225 525.75,3225 L525.75,3225 L536.25,3225 L536.508077,3224.99627 C541.222761,3224.85986 545,3220.99783 545,3216.25 L545,3216.25 L545,3205.75 L544.996271,3205.49192 C544.859856,3200.77724 540.997834,3197 536.25,3197 L536.25,3197 Z M536.25,3199.62789 C539.628713,3199.62789 542.372112,3202.37706 542.372112,3205.75 L542.372112,3205.75 L542.372112,3216.25 L542.368063,3216.47428 C542.249619,3219.74929 539.547983,3222.37211 536.25,3222.37211 L536.25,3222.37211 L525.75,3222.37211 L525.525717,3222.36806 C522.250713,3222.24962 519.627888,3219.54798 519.627888,3216.25 L519.627888,3216.25 L519.627888,3205.75 L519.631937,3205.52572 C519.750381,3202.25071 522.452017,3199.62789 525.75,3199.62789 L525.75,3199.62789 Z M531,3204 C527.136139,3204 524,3207.13614 524,3211 C524,3214.86386 527.136139,3218 531,3218 C534.863861,3218 538,3214.86386 538,3211 C538,3207.13614 534.863861,3204 531,3204 Z M531,3206.62789 C533.408416,3206.62789 535.372112,3208.59158 535.372112,3211 C535.372112,3213.41419 533.414191,3215.37211 531,3215.37211 C528.585809,3215.37211 526.627888,3213.40842 526.627888,3211 C526.627888,3208.58581 528.591584,3206.62789 531,3206.62789 Z M538,3203 C537.447715,3203 537,3203.44772 537,3204 C537,3204.55228 537.447715,3205 538,3205 C538.552285,3205 539,3204.55228 539,3204 C539,3203.44772 538.552285,3203 538,3203 Z" id="Combined-Shape"></path>
        </g>
    </g>
</svg>