<?xml version="1.0" encoding="UTF-8"?>
<svg width="42px" height="42px" viewBox="0 0 42 42" version="1.1" xmlns="http://www.w3.org/2000/svg" xmlns:xlink="http://www.w3.org/1999/xlink">
    <title>Combined Shape 3</title>
    <g id="Page-1" stroke="none" stroke-width="1" fill="none" fill-rule="evenodd">
        <g id="Home" transform="translate(-572.000000, -3190.000000)" fill="#F7D7A7">
            <path d="M593,3190 C604.59798,3190 614,3199.40202 614,3211 C614,3222.59798 604.59798,3232 593,3232 C581.40202,3232 572,3222.59798 572,3211 C572,3199.40202 581.40202,3190 593,3190 Z M599.058954,3199 C595.725286,3199 593.013163,3201.75029 593.013163,3205.13101 C593.013163,3205.54001 593.052098,3205.94493 593.129463,3206.33802 C588.512056,3206.04897 584.194527,3203.8009 581.258983,3200.14897 C581.228924,3200.11164 581.183332,3200.09094 581.135824,3200.09573 C581.088618,3200.0993 581.046254,3200.12633 581.022449,3200.16774 C580.486843,3201.09967 580.203809,3202.16592 580.203809,3203.25023 C580.203809,3205.12999 581.046052,3206.88767 582.479781,3208.04715 C581.741634,3207.95749 581.020633,3207.72178 580.370543,3207.35562 C580.326665,3207.33043 580.272298,3207.33094 580.228622,3207.35644 C580.184846,3207.38173 580.157107,3207.42896 580.155897,3207.48016 L580.155292,3207.5589 C580.155292,3210.25829 581.909376,3212.62845 584.404937,3213.41575 C583.747685,3213.52345 583.06572,3213.51601 582.395254,3213.38637 C582.345728,3213.37709 582.294084,3213.39423 582.260193,3213.43329 C582.226503,3213.47144 582.215206,3213.52539 582.23074,3213.57466 C582.979075,3215.94349 585.058356,3217.60478 587.478568,3217.81183 C585.459606,3219.31166 583.073386,3220.10192 580.551902,3220.10192 C580.087408,3220.10192 579.619686,3220.07397 579.161445,3220.0191 C579.095982,3220.01145 579.031124,3220.05112 579.008429,3220.11508 C578.985835,3220.17943 579.009841,3220.25093 579.066327,3220.28775 C581.794992,3222.06206 584.950125,3223 588.190491,3223 C598.790748,3223 605.125423,3214.2673 605.125423,3205.82499 C605.125423,3205.58999 605.120581,3205.35591 605.111402,3205.12275 C606.255037,3204.27446 607.236174,3203.23605 608.028286,3202.03414 C608.064094,3201.98029 608.059958,3201.90879 608.018805,3201.85871 C607.977449,3201.80904 607.908153,3201.79201 607.849448,3201.81924 C606.98098,3202.21008 606.06702,3202.49077 605.126129,3202.65692 C606.124918,3201.89461 606.869521,3200.83907 607.251002,3199.62859 C607.269259,3199.57066 607.250497,3199.50722 607.203594,3199.46948 C607.15659,3199.43174 607.091631,3199.42695 607.040189,3199.45806 C605.914912,3200.1349 604.69603,3200.61213 603.416325,3200.87671 C602.281365,3199.68286 600.698352,3199 599.058954,3199 Z" id="Combined-Shape"></path>
        </g>
    </g>
</svg>